<mxfile host="drawio-plugin" modified="2024-05-27T13:25:20.727Z" agent="5.0 (Macintosh; Intel Mac OS X 10_15_7) AppleWebKit/537.36 (KHTML, like Gecko) Chrome/122.0.0.0 Safari/537.36" version="20.5.3" etag="dYxejROvWlJvD3R-qgIx" type="embed"><diagram id="clMiF3PwN-vRytUoyNAT" name="Page-1"><mxGraphModel dx="1104" dy="738" grid="0" gridSize="10" guides="1" tooltips="1" connect="1" arrows="1" fold="1" page="1" pageScale="1" pageWidth="850" pageHeight="1100" background="#ffffff" math="0" shadow="0"><root><mxCell id="0"/><mxCell id="1" parent="0"/></root></mxGraphModel></diagram></mxfile>